<svg viewBox="0 0 2100 2100" version="1" xmlns="http://www.w3.org/2000/svg" fill-rule="evenodd" clip-rule="evenodd" stroke-linejoin="round" stroke-miterlimit="1">
  <g fill="#030404" fill-rule="nonzero">
    <path d="M1050 1C765 1 729 2 617 7S429 30 362 56c-69 27-127 62-186 121-58 58-94 117-121 186-26 67-44 143-49 255s-6 147-6 432 1 321 6 433 23 188 49 255c27 69 63 127 121 186 59 58 117 94 186 121 67 26 143 44 255 49s148 6 433 6 320-1 432-6 188-23 255-49c69-27 128-63 186-121 59-59 94-117 121-186 26-67 44-143 49-255s6-148 6-433-1-320-6-432-23-188-49-255c-27-69-62-128-121-186-58-59-117-94-186-121-67-26-143-44-255-49s-147-6-432-6zm0 189c280 0 313 1 424 6 102 5 158 22 195 36 49 19 84 42 120 79 37 36 60 71 79 120 14 37 31 93 36 195 5 111 6 144 6 424 0 281-1 314-6 424-5 103-22 158-36 195-19 49-42 84-79 121-36 37-71 60-120 79-37 14-93 31-195 36-111 5-144 6-424 6-281 0-314-1-424-6-103-5-158-22-195-36-49-19-84-42-121-79s-60-72-79-121c-14-37-31-92-36-195-5-110-6-143-6-424 0-280 1-313 6-424 5-102 22-158 36-195 19-49 42-84 79-120 37-37 72-60 121-79 37-14 92-31 195-36 110-5 143-6 424-6z"/>
    <path d="M1050 1400a350 350 0 1 1 0-700 350 350 0 0 1 0 700zm0-889a539 539 0 1 0 0 1078 539 539 0 0 0 0-1078zM1736 490a126 126 0 1 1-252 0 126 126 0 0 1 252 0z"/>
  </g>
</svg>
